<svg width="55" height="55" viewBox="0 0 55 55" fill="none" xmlns="http://www.w3.org/2000/svg">
<g id="ion:search-sharp">
<path id="Vector" d="M49.8438 45.9766L36.5148 32.6455C38.6629 29.6937 39.8184 26.1362 39.8148 22.4855C39.8148 12.9304 32.0407 5.15625 22.4855 5.15625C12.9304 5.15625 5.15625 12.9304 5.15625 22.4855C5.15625 32.0407 12.9304 39.8148 22.4855 39.8148C26.1362 39.8184 29.6937 38.6629 32.6455 36.5148L45.9766 49.8438L49.8438 45.9766ZM22.4855 34.3417C20.1403 34.3419 17.8477 33.6467 15.8976 32.3438C13.9475 31.041 12.4276 29.1892 11.53 27.0225C10.6325 24.8559 10.3975 22.4717 10.855 20.1715C11.3125 17.8713 12.4418 15.7585 14.1001 14.1001C15.7585 12.4418 17.8713 11.3125 20.1715 10.855C22.4717 10.3975 24.8559 10.6325 27.0225 11.53C29.1892 12.4276 31.041 13.9475 32.3438 15.8976C33.6467 17.8477 34.3419 20.1403 34.3417 22.4855C34.338 25.6289 33.0877 28.6424 30.865 30.865C28.6424 33.0877 25.6289 34.338 22.4855 34.3417Z" fill="white"/>
</g>
</svg>
